# xmcd
#
# Track frame offsets:
# 150
# 15431
# 27624
# 37681
# 48684
# 60550
# 73951
# 85170
# 96385
# 110942
# 123586
# 133239
# 145106
# 161190
#
# Disc length: 2309 seconds
#
#
# Revision: 0
# Processed by: cddbd v1.5.2PL0 Copyright (c) Steve Scherf et al.
# Submitted via: FreeRIP 2.951 
#
DISCID=d109030e
DTITLE=Tião Carreiro e Praiano - O Fogo e a Brasa
DYEAR=1900
DGENRE=Country
TTITLE0=Baianinho
TTITLE1=princesa
TTITLE2=Balanço da cama
TTITLE3=Minha Grande Amiga
TTITLE4=Eu, a Viola e Ela
TTITLE5=Circuito da Paixão
TTITLE6=Paixão Mineira
TTITLE7=Final dos Tempos
TTITLE8=Carreador
TTITLE9=O fogo e a Brasa
TTITLE10=Uma noite não é nada
TTITLE11=O mesmo Castigo
TTITLE12=Guerreiro do Asfato
TTITLE13=País Maravilha
EXTD=
EXTT0=
EXTT1=
EXTT2=
EXTT3=
EXTT4=
EXTT5=
EXTT6=
EXTT7=
EXTT8=
EXTT9=
EXTT10=
EXTT11=
EXTT12=
EXTT13=
PLAYORDER=
